<?xml version="1.0" standalone="no"?><!DOCTYPE svg PUBLIC "-//W3C//DTD SVG 1.1//EN" "http://www.w3.org/Graphics/SVG/1.1/DTD/svg11.dtd"><svg t="1755138246083" class="icon" viewBox="0 0 1024 1024" version="1.1" xmlns="http://www.w3.org/2000/svg" p-id="9159" xmlns:xlink="http://www.w3.org/1999/xlink" width="200" height="200"><path d="M597.333333 102.4a102.4 102.4 0 0 1 102.331734 98.56L699.733333 204.8v68.266667a34.133333 34.133333 0 0 1-68.181333 2.56L631.466667 273.066667v-68.266667a34.133333 34.133333 0 0 0-31.573334-34.048L597.333333 170.666667H426.666667a34.133333 34.133333 0 0 0-34.048 31.573333L392.533333 204.8v68.266667a34.133333 34.133333 0 0 1-68.181333 2.56L324.266667 273.066667v-68.266667a102.4 102.4 0 0 1 98.56-102.331733L426.666667 102.4h170.666666z" fill="#444444" p-id="9160"></path><path d="M887.466667 238.933333H136.533333a68.266667 68.266667 0 0 0-68.266666 68.266667v546.133333a68.266667 68.266667 0 0 0 68.266666 68.266667h750.933334a68.266667 68.266667 0 0 0 68.266666-68.266667V307.2a68.266667 68.266667 0 0 0-68.266666-68.266667zM136.533333 307.2h750.933334v546.133333H136.533333V307.2z" fill="#444444" p-id="9161"></path><path d="M546.133333 409.6v136.533333h136.533334v68.266667h-136.533334v136.533333h-68.266666v-136.533333h-136.533334v-68.266667h136.533334v-136.533333h68.266666z" fill="#00B386" p-id="9162"></path></svg>