<?xml version="1.0" standalone="no"?><!DOCTYPE svg PUBLIC "-//W3C//DTD SVG 1.1//EN" "http://www.w3.org/Graphics/SVG/1.1/DTD/svg11.dtd"><svg t="1755223919997" class="icon" viewBox="0 0 1024 1024" version="1.1" xmlns="http://www.w3.org/2000/svg" p-id="8235" xmlns:xlink="http://www.w3.org/1999/xlink" width="200" height="200"><path d="M789.333333 21.333333a149.333333 149.333333 0 0 1 149.333334 149.333334v682.666666a149.333333 149.333333 0 0 1-149.333334 149.333334H234.666667a149.333333 149.333333 0 0 1-149.333334-149.333334V170.666667a149.333333 149.333333 0 0 1 149.333334-149.333334h554.666666z m0 85.333334H234.666667a64 64 0 0 0-64 64v682.666666a64 64 0 0 0 64 64h554.666666a64 64 0 0 0 64-64V170.666667a64 64 0 0 0-64-64z m-85.333333 277.333333a42.666667 42.666667 0 0 1 42.666667 42.666667v234.666666a42.666667 42.666667 0 1 1-85.333334 0V426.666667a42.666667 42.666667 0 0 1 42.666667-42.666667zM426.666667 192a42.666667 42.666667 0 0 1 42.666666 42.666667v21.333333a42.666667 42.666667 0 0 1-42.666666 42.666667h-106.666667a42.666667 42.666667 0 0 1-42.666667-42.666667v-21.333333a42.666667 42.666667 0 0 1 42.666667-42.666667h106.666667z" p-id="8236"></path></svg>