<?xml version="1.0" standalone="no"?><!DOCTYPE svg PUBLIC "-//W3C//DTD SVG 1.1//EN" "http://www.w3.org/Graphics/SVG/1.1/DTD/svg11.dtd"><svg t="1755138156550" class="icon" viewBox="0 0 1024 1024" version="1.1" xmlns="http://www.w3.org/2000/svg" p-id="7926" xmlns:xlink="http://www.w3.org/1999/xlink" width="200" height="200"><path d="M512 134.4c-146.7904 0-265.7792 118.9888-265.7792 265.7792S365.2096 665.984 512 665.984s265.7792-119.0144 265.7792-265.8048C777.7792 253.3888 658.7904 134.4 512 134.4z m0 64a201.7792 201.7792 0 1 1 0 403.584A201.7792 201.7792 0 0 1 512 198.4z" fill="#2c2c2c" p-id="7927"></path><path d="M512 601.6c179.456 0 276.5056 76.032 291.1744 228.0448a24.32 24.32 0 0 1-21.888 26.5472l-1.152 0.0768-535.0912 0.0256a24.32 24.32 0 0 1-24.32-24.32l0.0256-1.152 0.0768-1.1776C235.52 677.632 332.544 601.6 512 601.6z m0 64c-125.44 0-193.3312 38.016-218.112 120.5504l-1.7664 6.144h439.7056l-0.0512-0.3328c-22.8096-84.6336-88.4224-124.5696-211.3024-126.3104L512 665.6zM560.9472 454.656a25.6 25.6 0 0 1 38.784 33.4336A115.5328 115.5328 0 0 1 512 528.3328a115.5328 115.5328 0 0 1-87.7312-40.2432 25.6 25.6 0 0 1 38.784-33.408 64.3584 64.3584 0 0 0 48.9472 22.4512c19.072 0 36.736-8.2944 48.9472-22.4512z" fill="#2c2c2c" p-id="7928"></path></svg>